# xmcd
#
# Track frame offsets:
#	150
#	15919
#	32424
#	48436
#	63435
#	78907
#	95582
#	111699
#	126766
#	141285
#
# Disc length: 2039
#
# Revision: 1
# Processed by: cddbd v1.5.1PL0 Copyright (c) Steve Scherf et al.
# Submitted via: EasyCDDAExtractor 4.5.0.2
# Normalized: r0:TDELIM( - )
#
DISCID=8007f50a
DTITLE=cdx
DYEAR=1900
DGENRE=
TTITLE0=Skip Ewing - Answer To My Prayer
TTITLE1=The Thompson Brother Band - Drive Me Crazy
TTITLE2=Deana Carter - How Do I Get There
TTITLE3=Bryan White - Love Is The Right Place
TTITLE4=Brady Seals - Natural Born Lovers
TTITLE5=The Kinleys - Please
TTITLE6=John Fogerty - Southern Streamline
TTITLE7=Matraca Berg - That Train Don't Run
TTITLE8=Raybon Bros. - The Way She's Looking
TTITLE9=Wade Richardson - Another Lover
EXTD=
EXTT0=
EXTT1=
EXTT2=
EXTT3=
EXTT4=
EXTT5=
EXTT6=
EXTT7=
EXTT8=
EXTT9=
PLAYORDER=
